<?xml version="1.0" encoding="utf-8" standalone="no"?>
<!DOCTYPE svg PUBLIC "-//W3C//DTD SVG 1.1//EN"
  "http://www.w3.org/Graphics/SVG/1.1/DTD/svg11.dtd">
<!-- Created with matplotlib (https://matplotlib.org/) -->
<svg height="345.6pt" version="1.1" viewBox="0 0 460.8 345.6" width="460.8pt" xmlns="http://www.w3.org/2000/svg" xmlns:xlink="http://www.w3.org/1999/xlink">
 <defs>
  <style type="text/css">
*{stroke-linecap:butt;stroke-linejoin:round;}
  </style>
 </defs>
 <g id="figure_1">
  <g id="patch_1">
   <path d="M 0 345.6 
L 460.8 345.6 
L 460.8 0 
L 0 0 
z
" style="fill:#ffffff;"/>
  </g>
  <g id="axes_1">
   <g id="patch_2">
    <path d="M 57.6 307.584 
L 414.72 307.584 
L 414.72 41.472 
L 57.6 41.472 
z
" style="fill:#ffffff;"/>
   </g>
   <g id="matplotlib.axis_1">
    <g id="xtick_1">
     <g id="line2d_1">
      <defs>
       <path d="M 0 0 
L 0 3.5 
" id="m9dc13bc95e" style="stroke:#000000;stroke-width:0.8;"/>
      </defs>
      <g>
       <use style="stroke:#000000;stroke-width:0.8;" x="73.832727" xlink:href="#m9dc13bc95e" y="307.584"/>
      </g>
     </g>
     <g id="text_1">
      <!-- −3 -->
      <defs>
       <path d="M 10.59375 35.5 
L 73.1875 35.5 
L 73.1875 27.203125 
L 10.59375 27.203125 
z
" id="DejaVuSans-8722"/>
       <path d="M 40.578125 39.3125 
Q 47.65625 37.796875 51.625 33 
Q 55.609375 28.21875 55.609375 21.1875 
Q 55.609375 10.40625 48.1875 4.484375 
Q 40.765625 -1.421875 27.09375 -1.421875 
Q 22.515625 -1.421875 17.65625 -0.515625 
Q 12.796875 0.390625 7.625 2.203125 
L 7.625 11.71875 
Q 11.71875 9.328125 16.59375 8.109375 
Q 21.484375 6.890625 26.8125 6.890625 
Q 36.078125 6.890625 40.9375 10.546875 
Q 45.796875 14.203125 45.796875 21.1875 
Q 45.796875 27.640625 41.28125 31.265625 
Q 36.765625 34.90625 28.71875 34.90625 
L 20.21875 34.90625 
L 20.21875 43.015625 
L 29.109375 43.015625 
Q 36.375 43.015625 40.234375 45.921875 
Q 44.09375 48.828125 44.09375 54.296875 
Q 44.09375 59.90625 40.109375 62.90625 
Q 36.140625 65.921875 28.71875 65.921875 
Q 24.65625 65.921875 20.015625 65.03125 
Q 15.375 64.15625 9.8125 62.3125 
L 9.8125 71.09375 
Q 15.4375 72.65625 20.34375 73.4375 
Q 25.25 74.21875 29.59375 74.21875 
Q 40.828125 74.21875 47.359375 69.109375 
Q 53.90625 64.015625 53.90625 55.328125 
Q 53.90625 49.265625 50.4375 45.09375 
Q 46.96875 40.921875 40.578125 39.3125 
z
" id="DejaVuSans-51"/>
      </defs>
      <g transform="translate(66.461634 322.182437)scale(0.1 -0.1)">
       <use xlink:href="#DejaVuSans-8722"/>
       <use x="83.789062" xlink:href="#DejaVuSans-51"/>
      </g>
     </g>
    </g>
    <g id="xtick_2">
     <g id="line2d_2">
      <g>
       <use style="stroke:#000000;stroke-width:0.8;" x="114.928239" xlink:href="#m9dc13bc95e" y="307.584"/>
      </g>
     </g>
     <g id="text_2">
      <!-- −2 -->
      <defs>
       <path d="M 19.1875 8.296875 
L 53.609375 8.296875 
L 53.609375 0 
L 7.328125 0 
L 7.328125 8.296875 
Q 12.9375 14.109375 22.625 23.890625 
Q 32.328125 33.6875 34.8125 36.53125 
Q 39.546875 41.84375 41.421875 45.53125 
Q 43.3125 49.21875 43.3125 52.78125 
Q 43.3125 58.59375 39.234375 62.25 
Q 35.15625 65.921875 28.609375 65.921875 
Q 23.96875 65.921875 18.8125 64.3125 
Q 13.671875 62.703125 7.8125 59.421875 
L 7.8125 69.390625 
Q 13.765625 71.78125 18.9375 73 
Q 24.125 74.21875 28.421875 74.21875 
Q 39.75 74.21875 46.484375 68.546875 
Q 53.21875 62.890625 53.21875 53.421875 
Q 53.21875 48.921875 51.53125 44.890625 
Q 49.859375 40.875 45.40625 35.40625 
Q 44.1875 33.984375 37.640625 27.21875 
Q 31.109375 20.453125 19.1875 8.296875 
z
" id="DejaVuSans-50"/>
      </defs>
      <g transform="translate(107.557146 322.182437)scale(0.1 -0.1)">
       <use xlink:href="#DejaVuSans-8722"/>
       <use x="83.789062" xlink:href="#DejaVuSans-50"/>
      </g>
     </g>
    </g>
    <g id="xtick_3">
     <g id="line2d_3">
      <g>
       <use style="stroke:#000000;stroke-width:0.8;" x="156.023751" xlink:href="#m9dc13bc95e" y="307.584"/>
      </g>
     </g>
     <g id="text_3">
      <!-- −1 -->
      <defs>
       <path d="M 12.40625 8.296875 
L 28.515625 8.296875 
L 28.515625 63.921875 
L 10.984375 60.40625 
L 10.984375 69.390625 
L 28.421875 72.90625 
L 38.28125 72.90625 
L 38.28125 8.296875 
L 54.390625 8.296875 
L 54.390625 0 
L 12.40625 0 
z
" id="DejaVuSans-49"/>
      </defs>
      <g transform="translate(148.652658 322.182437)scale(0.1 -0.1)">
       <use xlink:href="#DejaVuSans-8722"/>
       <use x="83.789062" xlink:href="#DejaVuSans-49"/>
      </g>
     </g>
    </g>
    <g id="xtick_4">
     <g id="line2d_4">
      <g>
       <use style="stroke:#000000;stroke-width:0.8;" x="197.119264" xlink:href="#m9dc13bc95e" y="307.584"/>
      </g>
     </g>
     <g id="text_4">
      <!-- 0 -->
      <defs>
       <path d="M 31.78125 66.40625 
Q 24.171875 66.40625 20.328125 58.90625 
Q 16.5 51.421875 16.5 36.375 
Q 16.5 21.390625 20.328125 13.890625 
Q 24.171875 6.390625 31.78125 6.390625 
Q 39.453125 6.390625 43.28125 13.890625 
Q 47.125 21.390625 47.125 36.375 
Q 47.125 51.421875 43.28125 58.90625 
Q 39.453125 66.40625 31.78125 66.40625 
z
M 31.78125 74.21875 
Q 44.046875 74.21875 50.515625 64.515625 
Q 56.984375 54.828125 56.984375 36.375 
Q 56.984375 17.96875 50.515625 8.265625 
Q 44.046875 -1.421875 31.78125 -1.421875 
Q 19.53125 -1.421875 13.0625 8.265625 
Q 6.59375 17.96875 6.59375 36.375 
Q 6.59375 54.828125 13.0625 64.515625 
Q 19.53125 74.21875 31.78125 74.21875 
z
" id="DejaVuSans-48"/>
      </defs>
      <g transform="translate(193.938014 322.182437)scale(0.1 -0.1)">
       <use xlink:href="#DejaVuSans-48"/>
      </g>
     </g>
    </g>
    <g id="xtick_5">
     <g id="line2d_5">
      <g>
       <use style="stroke:#000000;stroke-width:0.8;" x="238.214776" xlink:href="#m9dc13bc95e" y="307.584"/>
      </g>
     </g>
     <g id="text_5">
      <!-- 1 -->
      <g transform="translate(235.033526 322.182437)scale(0.1 -0.1)">
       <use xlink:href="#DejaVuSans-49"/>
      </g>
     </g>
    </g>
    <g id="xtick_6">
     <g id="line2d_6">
      <g>
       <use style="stroke:#000000;stroke-width:0.8;" x="279.310288" xlink:href="#m9dc13bc95e" y="307.584"/>
      </g>
     </g>
     <g id="text_6">
      <!-- 2 -->
      <g transform="translate(276.129038 322.182437)scale(0.1 -0.1)">
       <use xlink:href="#DejaVuSans-50"/>
      </g>
     </g>
    </g>
    <g id="xtick_7">
     <g id="line2d_7">
      <g>
       <use style="stroke:#000000;stroke-width:0.8;" x="320.4058" xlink:href="#m9dc13bc95e" y="307.584"/>
      </g>
     </g>
     <g id="text_7">
      <!-- 3 -->
      <g transform="translate(317.22455 322.182437)scale(0.1 -0.1)">
       <use xlink:href="#DejaVuSans-51"/>
      </g>
     </g>
    </g>
    <g id="xtick_8">
     <g id="line2d_8">
      <g>
       <use style="stroke:#000000;stroke-width:0.8;" x="361.501312" xlink:href="#m9dc13bc95e" y="307.584"/>
      </g>
     </g>
     <g id="text_8">
      <!-- 4 -->
      <defs>
       <path d="M 37.796875 64.3125 
L 12.890625 25.390625 
L 37.796875 25.390625 
z
M 35.203125 72.90625 
L 47.609375 72.90625 
L 47.609375 25.390625 
L 58.015625 25.390625 
L 58.015625 17.1875 
L 47.609375 17.1875 
L 47.609375 0 
L 37.796875 0 
L 37.796875 17.1875 
L 4.890625 17.1875 
L 4.890625 26.703125 
z
" id="DejaVuSans-52"/>
      </defs>
      <g transform="translate(358.320062 322.182437)scale(0.1 -0.1)">
       <use xlink:href="#DejaVuSans-52"/>
      </g>
     </g>
    </g>
    <g id="xtick_9">
     <g id="line2d_9">
      <g>
       <use style="stroke:#000000;stroke-width:0.8;" x="402.596824" xlink:href="#m9dc13bc95e" y="307.584"/>
      </g>
     </g>
     <g id="text_9">
      <!-- 5 -->
      <defs>
       <path d="M 10.796875 72.90625 
L 49.515625 72.90625 
L 49.515625 64.59375 
L 19.828125 64.59375 
L 19.828125 46.734375 
Q 21.96875 47.46875 24.109375 47.828125 
Q 26.265625 48.1875 28.421875 48.1875 
Q 40.625 48.1875 47.75 41.5 
Q 54.890625 34.8125 54.890625 23.390625 
Q 54.890625 11.625 47.5625 5.09375 
Q 40.234375 -1.421875 26.90625 -1.421875 
Q 22.3125 -1.421875 17.546875 -0.640625 
Q 12.796875 0.140625 7.71875 1.703125 
L 7.71875 11.625 
Q 12.109375 9.234375 16.796875 8.0625 
Q 21.484375 6.890625 26.703125 6.890625 
Q 35.15625 6.890625 40.078125 11.328125 
Q 45.015625 15.765625 45.015625 23.390625 
Q 45.015625 31 40.078125 35.4375 
Q 35.15625 39.890625 26.703125 39.890625 
Q 22.75 39.890625 18.8125 39.015625 
Q 14.890625 38.140625 10.796875 36.28125 
z
" id="DejaVuSans-53"/>
      </defs>
      <g transform="translate(399.415574 322.182437)scale(0.1 -0.1)">
       <use xlink:href="#DejaVuSans-53"/>
      </g>
     </g>
    </g>
    <g id="text_10">
     <!-- W -->
     <defs>
      <path d="M 3.328125 72.90625 
L 13.28125 72.90625 
L 28.609375 11.28125 
L 43.890625 72.90625 
L 54.984375 72.90625 
L 70.3125 11.28125 
L 85.59375 72.90625 
L 95.609375 72.90625 
L 77.296875 0 
L 64.890625 0 
L 49.515625 63.28125 
L 33.984375 0 
L 21.578125 0 
z
" id="DejaVuSans-87"/>
     </defs>
     <g transform="translate(231.21625 335.860562)scale(0.1 -0.1)">
      <use xlink:href="#DejaVuSans-87"/>
     </g>
    </g>
   </g>
   <g id="matplotlib.axis_2">
    <g id="ytick_1">
     <g id="line2d_10">
      <defs>
       <path d="M 0 0 
L -3.5 0 
" id="m5a8e9f8bfc" style="stroke:#000000;stroke-width:0.8;"/>
      </defs>
      <g>
       <use style="stroke:#000000;stroke-width:0.8;" x="57.6" xlink:href="#m5a8e9f8bfc" y="295.488"/>
      </g>
     </g>
     <g id="text_11">
      <!-- 0 -->
      <g transform="translate(44.2375 299.287219)scale(0.1 -0.1)">
       <use xlink:href="#DejaVuSans-48"/>
      </g>
     </g>
    </g>
    <g id="ytick_2">
     <g id="line2d_11">
      <g>
       <use style="stroke:#000000;stroke-width:0.8;" x="57.6" xlink:href="#m5a8e9f8bfc" y="246.888001"/>
      </g>
     </g>
     <g id="text_12">
      <!-- 5 -->
      <g transform="translate(44.2375 250.68722)scale(0.1 -0.1)">
       <use xlink:href="#DejaVuSans-53"/>
      </g>
     </g>
    </g>
    <g id="ytick_3">
     <g id="line2d_12">
      <g>
       <use style="stroke:#000000;stroke-width:0.8;" x="57.6" xlink:href="#m5a8e9f8bfc" y="198.288002"/>
      </g>
     </g>
     <g id="text_13">
      <!-- 10 -->
      <g transform="translate(37.875 202.08722)scale(0.1 -0.1)">
       <use xlink:href="#DejaVuSans-49"/>
       <use x="63.623047" xlink:href="#DejaVuSans-48"/>
      </g>
     </g>
    </g>
    <g id="ytick_4">
     <g id="line2d_13">
      <g>
       <use style="stroke:#000000;stroke-width:0.8;" x="57.6" xlink:href="#m5a8e9f8bfc" y="149.688002"/>
      </g>
     </g>
     <g id="text_14">
      <!-- 15 -->
      <g transform="translate(37.875 153.487221)scale(0.1 -0.1)">
       <use xlink:href="#DejaVuSans-49"/>
       <use x="63.623047" xlink:href="#DejaVuSans-53"/>
      </g>
     </g>
    </g>
    <g id="ytick_5">
     <g id="line2d_14">
      <g>
       <use style="stroke:#000000;stroke-width:0.8;" x="57.6" xlink:href="#m5a8e9f8bfc" y="101.088003"/>
      </g>
     </g>
     <g id="text_15">
      <!-- 20 -->
      <g transform="translate(37.875 104.887222)scale(0.1 -0.1)">
       <use xlink:href="#DejaVuSans-50"/>
       <use x="63.623047" xlink:href="#DejaVuSans-48"/>
      </g>
     </g>
    </g>
    <g id="ytick_6">
     <g id="line2d_15">
      <g>
       <use style="stroke:#000000;stroke-width:0.8;" x="57.6" xlink:href="#m5a8e9f8bfc" y="52.488004"/>
      </g>
     </g>
     <g id="text_16">
      <!-- 25 -->
      <g transform="translate(37.875 56.287223)scale(0.1 -0.1)">
       <use xlink:href="#DejaVuSans-50"/>
       <use x="63.623047" xlink:href="#DejaVuSans-53"/>
      </g>
     </g>
    </g>
    <g id="text_17">
     <!-- COST -->
     <defs>
      <path d="M 64.40625 67.28125 
L 64.40625 56.890625 
Q 59.421875 61.53125 53.78125 63.8125 
Q 48.140625 66.109375 41.796875 66.109375 
Q 29.296875 66.109375 22.65625 58.46875 
Q 16.015625 50.828125 16.015625 36.375 
Q 16.015625 21.96875 22.65625 14.328125 
Q 29.296875 6.6875 41.796875 6.6875 
Q 48.140625 6.6875 53.78125 8.984375 
Q 59.421875 11.28125 64.40625 15.921875 
L 64.40625 5.609375 
Q 59.234375 2.09375 53.4375 0.328125 
Q 47.65625 -1.421875 41.21875 -1.421875 
Q 24.65625 -1.421875 15.125 8.703125 
Q 5.609375 18.84375 5.609375 36.375 
Q 5.609375 53.953125 15.125 64.078125 
Q 24.65625 74.21875 41.21875 74.21875 
Q 47.75 74.21875 53.53125 72.484375 
Q 59.328125 70.75 64.40625 67.28125 
z
" id="DejaVuSans-67"/>
      <path d="M 39.40625 66.21875 
Q 28.65625 66.21875 22.328125 58.203125 
Q 16.015625 50.203125 16.015625 36.375 
Q 16.015625 22.609375 22.328125 14.59375 
Q 28.65625 6.59375 39.40625 6.59375 
Q 50.140625 6.59375 56.421875 14.59375 
Q 62.703125 22.609375 62.703125 36.375 
Q 62.703125 50.203125 56.421875 58.203125 
Q 50.140625 66.21875 39.40625 66.21875 
z
M 39.40625 74.21875 
Q 54.734375 74.21875 63.90625 63.9375 
Q 73.09375 53.65625 73.09375 36.375 
Q 73.09375 19.140625 63.90625 8.859375 
Q 54.734375 -1.421875 39.40625 -1.421875 
Q 24.03125 -1.421875 14.8125 8.828125 
Q 5.609375 19.09375 5.609375 36.375 
Q 5.609375 53.65625 14.8125 63.9375 
Q 24.03125 74.21875 39.40625 74.21875 
z
" id="DejaVuSans-79"/>
      <path d="M 53.515625 70.515625 
L 53.515625 60.890625 
Q 47.90625 63.578125 42.921875 64.890625 
Q 37.9375 66.21875 33.296875 66.21875 
Q 25.25 66.21875 20.875 63.09375 
Q 16.5 59.96875 16.5 54.203125 
Q 16.5 49.359375 19.40625 46.890625 
Q 22.3125 44.4375 30.421875 42.921875 
L 36.375 41.703125 
Q 47.40625 39.59375 52.65625 34.296875 
Q 57.90625 29 57.90625 20.125 
Q 57.90625 9.515625 50.796875 4.046875 
Q 43.703125 -1.421875 29.984375 -1.421875 
Q 24.8125 -1.421875 18.96875 -0.25 
Q 13.140625 0.921875 6.890625 3.21875 
L 6.890625 13.375 
Q 12.890625 10.015625 18.65625 8.296875 
Q 24.421875 6.59375 29.984375 6.59375 
Q 38.421875 6.59375 43.015625 9.90625 
Q 47.609375 13.234375 47.609375 19.390625 
Q 47.609375 24.75 44.3125 27.78125 
Q 41.015625 30.8125 33.5 32.328125 
L 27.484375 33.5 
Q 16.453125 35.6875 11.515625 40.375 
Q 6.59375 45.0625 6.59375 53.421875 
Q 6.59375 63.09375 13.40625 68.65625 
Q 20.21875 74.21875 32.171875 74.21875 
Q 37.3125 74.21875 42.625 73.28125 
Q 47.953125 72.359375 53.515625 70.515625 
z
" id="DejaVuSans-83"/>
      <path d="M -0.296875 72.90625 
L 61.375 72.90625 
L 61.375 64.59375 
L 35.5 64.59375 
L 35.5 0 
L 25.59375 0 
L 25.59375 64.59375 
L -0.296875 64.59375 
z
" id="DejaVuSans-84"/>
     </defs>
     <g transform="translate(31.795313 188.183469)rotate(-90)scale(0.1 -0.1)">
      <use xlink:href="#DejaVuSans-67"/>
      <use x="69.824219" xlink:href="#DejaVuSans-79"/>
      <use x="148.535156" xlink:href="#DejaVuSans-83"/>
      <use x="212.011719" xlink:href="#DejaVuSans-84"/>
     </g>
    </g>
   </g>
   <g id="line2d_16">
    <defs>
     <path d="M 0 3 
C 0.795609 3 1.55874 2.683901 2.12132 2.12132 
C 2.683901 1.55874 3 0.795609 3 0 
C 3 -0.795609 2.683901 -1.55874 2.12132 -2.12132 
C 1.55874 -2.683901 0.795609 -3 0 -3 
C -0.795609 -3 -1.55874 -2.683901 -2.12132 -2.12132 
C -2.683901 -1.55874 -3 -0.795609 -3 0 
C -3 0.795609 -2.683901 1.55874 -2.12132 2.12132 
C -1.55874 2.683901 -0.795609 3 0 3 
z
" id="mfb4aa212ac" style="stroke:#ff0000;"/>
    </defs>
    <g clip-path="url(#p21398c919d)">
     <use style="fill:#ff0000;stroke:#ff0000;" x="73.832727" xlink:href="#mfb4aa212ac" y="53.568"/>
     <use style="fill:#ff0000;stroke:#ff0000;" x="77.942278" xlink:href="#mfb4aa212ac" y="65.512787"/>
     <use style="fill:#ff0000;stroke:#ff0000;" x="82.05183" xlink:href="#mfb4aa212ac" y="77.155196"/>
     <use style="fill:#ff0000;stroke:#ff0000;" x="86.161381" xlink:href="#mfb4aa212ac" y="88.495189"/>
     <use style="fill:#ff0000;stroke:#ff0000;" x="90.270932" xlink:href="#mfb4aa212ac" y="99.532823"/>
     <use style="fill:#ff0000;stroke:#ff0000;" x="94.380483" xlink:href="#mfb4aa212ac" y="110.267987"/>
     <use style="fill:#ff0000;stroke:#ff0000;" x="98.490035" xlink:href="#mfb4aa212ac" y="120.700772"/>
     <use style="fill:#ff0000;stroke:#ff0000;" x="102.599586" xlink:href="#mfb4aa212ac" y="130.831216"/>
     <use style="fill:#ff0000;stroke:#ff0000;" x="106.709137" xlink:href="#mfb4aa212ac" y="140.65919"/>
     <use style="fill:#ff0000;stroke:#ff0000;" x="110.818688" xlink:href="#mfb4aa212ac" y="150.184822"/>
     <use style="fill:#ff0000;stroke:#ff0000;" x="114.928239" xlink:href="#mfb4aa212ac" y="159.408002"/>
     <use style="fill:#ff0000;stroke:#ff0000;" x="119.037791" xlink:href="#mfb4aa212ac" y="168.328804"/>
     <use style="fill:#ff0000;stroke:#ff0000;" x="123.147342" xlink:href="#mfb4aa212ac" y="176.94721"/>
     <use style="fill:#ff0000;stroke:#ff0000;" x="127.256893" xlink:href="#mfb4aa212ac" y="185.263182"/>
     <use style="fill:#ff0000;stroke:#ff0000;" x="131.366444" xlink:href="#mfb4aa212ac" y="193.276794"/>
     <use style="fill:#ff0000;stroke:#ff0000;" x="135.475995" xlink:href="#mfb4aa212ac" y="200.988001"/>
     <use style="fill:#ff0000;stroke:#ff0000;" x="139.585547" xlink:href="#mfb4aa212ac" y="208.396801"/>
     <use style="fill:#ff0000;stroke:#ff0000;" x="143.695098" xlink:href="#mfb4aa212ac" y="215.503196"/>
     <use style="fill:#ff0000;stroke:#ff0000;" x="147.804649" xlink:href="#mfb4aa212ac" y="222.307189"/>
     <use style="fill:#ff0000;stroke:#ff0000;" x="151.9142" xlink:href="#mfb4aa212ac" y="228.8088"/>
     <use style="fill:#ff0000;stroke:#ff0000;" x="156.023751" xlink:href="#mfb4aa212ac" y="235.008"/>
     <use style="fill:#ff0000;stroke:#ff0000;" x="160.133303" xlink:href="#mfb4aa212ac" y="240.904799"/>
     <use style="fill:#ff0000;stroke:#ff0000;" x="164.242854" xlink:href="#mfb4aa212ac" y="246.499201"/>
     <use style="fill:#ff0000;stroke:#ff0000;" x="168.352405" xlink:href="#mfb4aa212ac" y="251.791198"/>
     <use style="fill:#ff0000;stroke:#ff0000;" x="172.461956" xlink:href="#mfb4aa212ac" y="256.780797"/>
     <use style="fill:#ff0000;stroke:#ff0000;" x="176.571507" xlink:href="#mfb4aa212ac" y="261.468001"/>
     <use style="fill:#ff0000;stroke:#ff0000;" x="180.681059" xlink:href="#mfb4aa212ac" y="265.852803"/>
     <use style="fill:#ff0000;stroke:#ff0000;" x="184.79061" xlink:href="#mfb4aa212ac" y="269.935199"/>
     <use style="fill:#ff0000;stroke:#ff0000;" x="188.900161" xlink:href="#mfb4aa212ac" y="273.7152"/>
     <use style="fill:#ff0000;stroke:#ff0000;" x="193.009712" xlink:href="#mfb4aa212ac" y="277.192802"/>
     <use style="fill:#ff0000;stroke:#ff0000;" x="197.119264" xlink:href="#mfb4aa212ac" y="280.368"/>
     <use style="fill:#ff0000;stroke:#ff0000;" x="201.228815" xlink:href="#mfb4aa212ac" y="283.2408"/>
     <use style="fill:#ff0000;stroke:#ff0000;" x="205.338366" xlink:href="#mfb4aa212ac" y="285.811199"/>
     <use style="fill:#ff0000;stroke:#ff0000;" x="209.447917" xlink:href="#mfb4aa212ac" y="288.079201"/>
     <use style="fill:#ff0000;stroke:#ff0000;" x="213.557468" xlink:href="#mfb4aa212ac" y="290.0448"/>
     <use style="fill:#ff0000;stroke:#ff0000;" x="217.66702" xlink:href="#mfb4aa212ac" y="291.708"/>
     <use style="fill:#ff0000;stroke:#ff0000;" x="221.776571" xlink:href="#mfb4aa212ac" y="293.0688"/>
     <use style="fill:#ff0000;stroke:#ff0000;" x="225.886122" xlink:href="#mfb4aa212ac" y="294.1272"/>
     <use style="fill:#ff0000;stroke:#ff0000;" x="229.995673" xlink:href="#mfb4aa212ac" y="294.8832"/>
     <use style="fill:#ff0000;stroke:#ff0000;" x="234.105224" xlink:href="#mfb4aa212ac" y="295.3368"/>
     <use style="fill:#ff0000;stroke:#ff0000;" x="238.214776" xlink:href="#mfb4aa212ac" y="295.488"/>
     <use style="fill:#ff0000;stroke:#ff0000;" x="242.324327" xlink:href="#mfb4aa212ac" y="295.3368"/>
     <use style="fill:#ff0000;stroke:#ff0000;" x="246.433878" xlink:href="#mfb4aa212ac" y="294.8832"/>
     <use style="fill:#ff0000;stroke:#ff0000;" x="250.543429" xlink:href="#mfb4aa212ac" y="294.1272"/>
     <use style="fill:#ff0000;stroke:#ff0000;" x="254.65298" xlink:href="#mfb4aa212ac" y="293.068801"/>
     <use style="fill:#ff0000;stroke:#ff0000;" x="258.762532" xlink:href="#mfb4aa212ac" y="291.708"/>
     <use style="fill:#ff0000;stroke:#ff0000;" x="262.872083" xlink:href="#mfb4aa212ac" y="290.044799"/>
     <use style="fill:#ff0000;stroke:#ff0000;" x="266.981634" xlink:href="#mfb4aa212ac" y="288.079198"/>
     <use style="fill:#ff0000;stroke:#ff0000;" x="271.091185" xlink:href="#mfb4aa212ac" y="285.811202"/>
     <use style="fill:#ff0000;stroke:#ff0000;" x="275.200736" xlink:href="#mfb4aa212ac" y="283.240801"/>
     <use style="fill:#ff0000;stroke:#ff0000;" x="279.310288" xlink:href="#mfb4aa212ac" y="280.368"/>
     <use style="fill:#ff0000;stroke:#ff0000;" x="283.419839" xlink:href="#mfb4aa212ac" y="277.192802"/>
     <use style="fill:#ff0000;stroke:#ff0000;" x="287.52939" xlink:href="#mfb4aa212ac" y="273.715196"/>
     <use style="fill:#ff0000;stroke:#ff0000;" x="291.638941" xlink:href="#mfb4aa212ac" y="269.935203"/>
     <use style="fill:#ff0000;stroke:#ff0000;" x="295.748493" xlink:href="#mfb4aa212ac" y="265.852793"/>
     <use style="fill:#ff0000;stroke:#ff0000;" x="299.858044" xlink:href="#mfb4aa212ac" y="261.468001"/>
     <use style="fill:#ff0000;stroke:#ff0000;" x="303.967595" xlink:href="#mfb4aa212ac" y="256.780802"/>
     <use style="fill:#ff0000;stroke:#ff0000;" x="308.077146" xlink:href="#mfb4aa212ac" y="251.791193"/>
     <use style="fill:#ff0000;stroke:#ff0000;" x="312.186697" xlink:href="#mfb4aa212ac" y="246.499206"/>
     <use style="fill:#ff0000;stroke:#ff0000;" x="316.296249" xlink:href="#mfb4aa212ac" y="240.90479"/>
     <use style="fill:#ff0000;stroke:#ff0000;" x="320.4058" xlink:href="#mfb4aa212ac" y="235.008"/>
     <use style="fill:#ff0000;stroke:#ff0000;" x="324.515351" xlink:href="#mfb4aa212ac" y="228.808814"/>
     <use style="fill:#ff0000;stroke:#ff0000;" x="328.624902" xlink:href="#mfb4aa212ac" y="222.307189"/>
     <use style="fill:#ff0000;stroke:#ff0000;" x="332.734453" xlink:href="#mfb4aa212ac" y="215.503196"/>
     <use style="fill:#ff0000;stroke:#ff0000;" x="336.844005" xlink:href="#mfb4aa212ac" y="208.396783"/>
     <use style="fill:#ff0000;stroke:#ff0000;" x="340.953556" xlink:href="#mfb4aa212ac" y="200.988001"/>
     <use style="fill:#ff0000;stroke:#ff0000;" x="345.063107" xlink:href="#mfb4aa212ac" y="193.276813"/>
     <use style="fill:#ff0000;stroke:#ff0000;" x="349.172658" xlink:href="#mfb4aa212ac" y="185.263182"/>
     <use style="fill:#ff0000;stroke:#ff0000;" x="353.282209" xlink:href="#mfb4aa212ac" y="176.94721"/>
     <use style="fill:#ff0000;stroke:#ff0000;" x="357.391761" xlink:href="#mfb4aa212ac" y="168.328786"/>
     <use style="fill:#ff0000;stroke:#ff0000;" x="361.501312" xlink:href="#mfb4aa212ac" y="159.408002"/>
     <use style="fill:#ff0000;stroke:#ff0000;" x="365.610863" xlink:href="#mfb4aa212ac" y="150.184822"/>
     <use style="fill:#ff0000;stroke:#ff0000;" x="369.720414" xlink:href="#mfb4aa212ac" y="140.659208"/>
     <use style="fill:#ff0000;stroke:#ff0000;" x="373.829965" xlink:href="#mfb4aa212ac" y="130.831179"/>
     <use style="fill:#ff0000;stroke:#ff0000;" x="377.939517" xlink:href="#mfb4aa212ac" y="120.700772"/>
     <use style="fill:#ff0000;stroke:#ff0000;" x="382.049068" xlink:href="#mfb4aa212ac" y="110.267987"/>
     <use style="fill:#ff0000;stroke:#ff0000;" x="386.158619" xlink:href="#mfb4aa212ac" y="99.532823"/>
     <use style="fill:#ff0000;stroke:#ff0000;" x="390.26817" xlink:href="#mfb4aa212ac" y="88.495226"/>
     <use style="fill:#ff0000;stroke:#ff0000;" x="394.377722" xlink:href="#mfb4aa212ac" y="77.155196"/>
     <use style="fill:#ff0000;stroke:#ff0000;" x="398.487273" xlink:href="#mfb4aa212ac" y="65.512787"/>
    </g>
   </g>
   <g id="patch_3">
    <path d="M 57.6 307.584 
L 57.6 41.472 
" style="fill:none;stroke:#000000;stroke-linecap:square;stroke-linejoin:miter;stroke-width:0.8;"/>
   </g>
   <g id="patch_4">
    <path d="M 414.72 307.584 
L 414.72 41.472 
" style="fill:none;stroke:#000000;stroke-linecap:square;stroke-linejoin:miter;stroke-width:0.8;"/>
   </g>
   <g id="patch_5">
    <path d="M 57.6 307.584 
L 414.72 307.584 
" style="fill:none;stroke:#000000;stroke-linecap:square;stroke-linejoin:miter;stroke-width:0.8;"/>
   </g>
   <g id="patch_6">
    <path d="M 57.6 41.472 
L 414.72 41.472 
" style="fill:none;stroke:#000000;stroke-linecap:square;stroke-linejoin:miter;stroke-width:0.8;"/>
   </g>
  </g>
 </g>
 <defs>
  <clipPath id="p21398c919d">
   <rect height="266.112" width="357.12" x="57.6" y="41.472"/>
  </clipPath>
 </defs>
</svg>
